<svg width="22" height="21" viewBox="0 0 22 21" fill="none" xmlns="http://www.w3.org/2000/svg">
<path d="M13.3144 9.1445C13.6596 9.1445 13.8943 8.9788 14.129 8.53691C14.9713 6.96286 15.6616 6.85237 16.0345 8.20557C16.4073 9.53112 17.8158 9.66919 17.8158 8.38506C17.8158 6.96286 15.5789 5.80295 13.9771 6.3829C12.7896 6.82474 12.2374 9.1445 13.3144 9.1445Z" fill="#507AA0"/>
<path d="M5.91323 9.57253C5.91323 8.34367 6.75547 7.84657 7.15593 8.82693C7.61156 9.91772 8.41243 10.2353 8.7162 9.43447C9.28231 7.97084 6.24457 6.5348 4.87759 7.61186C4.33912 8.03991 3.8558 9.2964 4.04914 9.79351C4.28385 10.4148 5.91323 10.2077 5.91323 9.57253Z" fill="#507AA0"/>
<path d="M6.86595 16.504C10.5665 18.1471 14.3222 17.65 16.7938 15.1922C19.3897 12.6101 18.3956 9.91761 15.0403 10.4285C14.7226 10.4699 13.7837 10.8151 12.969 11.188C11.3121 11.9336 10.2904 11.9888 7.99822 11.4364C4.22862 10.5527 3.26205 14.9161 6.86595 16.504ZM16.421 11.4917C17.0562 12.2925 16.7662 13.6595 15.7859 14.5847C15.1369 15.1922 15.206 15.2474 14.7641 13.7286C14.5708 13.052 14.3499 12.3616 14.267 12.1821C14.0185 11.5469 15.9792 10.9256 16.421 11.4917ZM12.2787 12.4444C13.0933 12.2235 13.0934 12.2097 13.4661 13.9909C13.8804 15.9516 13.8804 15.9793 13.1762 16.2278C11.8092 16.7111 11.961 16.6835 11.6296 12.6101L12.2787 12.4444ZM8.97858 12.5963H10.5112C10.5112 15.4822 10.5527 15.4408 10.7598 16.4902L10.0142 16.3521C8.8681 16.145 8.97858 16.0621 8.97858 12.5963ZM7.40442 12.1407C7.88773 12.265 8.09486 15.6755 7.62539 15.6755C7.1835 15.6755 6.16171 14.419 6.02365 13.6872C5.80273 12.4859 6.35505 11.8645 7.40442 12.1407Z" fill="#507AA0"/>
<path d="M15.855 1.28761C13.6872 0.196812 13.632 0.611067 15.6756 2.59937C22.0686 8.79917 20.3426 18.1333 12.6792 18.8927C6.72801 19.4865 2.48894 15.8136 2.59942 10.2904C2.68228 5.8995 5.56809 1.30145 10.3181 0.749132C11.2708 0.638645 11.2984 0.611067 10.8704 0.376303C10.2076 0.00347403 8.27448 0.0725361 7.10084 0.486791C5.56815 1.03911 4.00783 2.17133 2.7927 3.63501C-0.258828 7.28027 0.0725881 13.0105 2.47515 16.4073C5.47151 20.6463 15.5099 21.3782 19.0308 17.6086C23.4494 12.8863 21.7648 4.27012 15.855 1.28761Z" fill="#507AA0"/>
</svg>
