<svg width="42" height="31" viewBox="0 0 42 31" fill="none" xmlns="http://www.w3.org/2000/svg">
<path d="M31.1518 25.059C31.6066 25.254 32.1047 25.1458 32.4729 24.8209C32.7977 24.5394 34.3353 23.1316 34.92 22.7851C35.6563 22.352 36.2194 14.9672 36.2194 14.9889C36.2627 14.5557 36.1111 14.1225 35.8079 13.8193C32.841 10.8091 32.6894 10.4192 29.1594 9.98615C28.1848 9.85625 27.5352 9.89955 27.4053 10.1162C26.8638 10.9824 29.311 12.5632 31.2384 12.5632C31.9747 12.5632 34.2486 14.9671 34.0321 15.5085C33.8805 15.8767 33.9454 18.2372 33.9238 20.836L32.9492 21.3341C32.4078 21.6157 31.7365 22.1138 31.455 22.4819C30.9569 23.11 30.9136 23.11 30.069 22.6119C29.2677 22.1354 27.8816 22.1572 27.8816 22.6553C27.8816 23.0884 29.5925 24.4527 30.7187 24.9074L31.1518 25.059Z" fill="#000001"/>
<path d="M41.2222 6.65065C41.2438 5.97935 40.9406 5.32965 40.4208 4.91815C39.4463 4.16015 38.3851 4.07355 37.8654 4.67995C36.2195 6.67235 29.5926 5.95765 22.9441 3.05565C18.3746 1.06325 13.0904 0.175349 8.5425 0.630149C-1.33287 1.60465 -0.315019 1.84295 0.63787 26.0332L1.69902 26.5746C2.73853 27.116 2.82511 27.116 5.7704 26.4663C10.4699 25.4268 18.1363 25.5134 22.5976 26.6179C26.604 27.6141 27.427 27.4409 25.7811 25.8816C22.7492 23.0229 10.6648 21.377 5.7704 23.1745C4.7742 23.5427 3.8431 23.8242 3.6915 23.8242C3.1717 23.8242 4.1462 17.3056 3.6481 3.81365C3.6698 3.81365 13.8916 0.933349 21.493 4.80985C25.6078 6.91055 30.6321 8.27485 34.4004 8.29655H38.0603C38.0603 25.9033 38.2119 27.7442 37.5839 27.7442C37.3024 27.7442 35.5915 27.5491 33.7723 27.3109C30.2423 26.8561 29.7442 26.9428 30.4588 27.9606C31.1518 28.9352 35.5049 29.9963 38.2336 30.1263C40.7458 30.2562 40.4425 29.888 40.5508 28.3504C40.6591 26.4663 40.5508 27.9606 41.2222 6.65065Z" fill="#000001"/>
<path d="M8.17418 8.36158C8.84548 8.18828 9.99338 7.21378 10.1883 6.65068C10.2749 6.36918 11.0762 6.39078 13.5451 6.67238C19.6522 7.38698 16.8368 4.85318 15.6674 4.52838C14.303 4.13858 12.1807 4.29018 9.75518 4.65828C9.30038 4.72328 8.75898 5.06978 8.56408 5.43798C8.36918 5.80608 7.37288 6.41248 6.67988 7.12718C4.79578 9.01128 4.60088 18.4319 6.41998 18.7134C7.91428 18.93 8.41238 19.1249 9.17038 19.8395C10.1016 20.6842 10.2099 20.5975 16.382 20.5975C17.2266 20.5975 17.6814 18.5185 12.3755 18.3019C10.1882 18.2153 9.71178 18.0854 8.93218 17.4357C8.43408 17.0242 7.89268 16.6777 7.74108 16.6777C7.06968 16.6777 7.50278 8.51318 8.17418 8.36158Z" fill="#000001"/>
<path d="M21.0814 20.0346C21.3197 19.7314 21.4929 18.5619 21.4929 18.4536C21.4929 18.3454 22.1426 18.3887 22.8573 18.1938C25.4994 17.4791 25.4344 14.2739 22.749 12.758C22.0127 12.3465 19.3273 12.1949 19.6954 10.549C19.9553 9.33624 20.8649 9.74774 21.8394 10.2242C22.5108 10.5274 23.0955 10.8739 23.6802 11.177C24.7197 11.7185 24.6981 10.3324 24.0051 9.74774C23.5719 9.37964 22.9439 9.01144 22.3159 8.72994C22.186 8.66494 22.4457 8.03694 22.2292 7.58214C21.7744 6.65084 20.4751 6.23944 20.4751 7.04074C20.4751 7.14894 20.2801 8.01524 20.2801 8.01524C20.2584 8.01524 17.9629 6.95404 17.0967 9.50954C16.6635 10.7872 17.2049 12.6497 18.8292 13.1478C20.1286 13.5593 22.4891 13.9707 22.3159 15.3134C22.0777 17.1759 18.9158 15.8982 18.8941 15.8982C16.6418 15.3351 15.1043 16.0714 17.768 17.2625C18.2228 17.4791 19.2406 17.739 19.4572 17.9339C19.6738 18.1288 19.4355 19.3632 19.4355 19.5798C19.4788 20.5327 20.5617 20.7492 21.0814 20.0346Z" fill="#000001"/>
</svg>
